<svg width="18" height="18" viewBox="0 0 18 18" fill="none" xmlns="http://www.w3.org/2000/svg">
<path d="M8.35711 16.0714C12.6176 16.0714 16.0714 12.6176 16.0714 8.35711C16.0714 4.09663 12.6176 0.642822 8.35711 0.642822C4.09663 0.642822 0.642822 4.09663 0.642822 8.35711C0.642822 12.6176 4.09663 16.0714 8.35711 16.0714Z" stroke="white" stroke-width="1.5" stroke-linecap="round" stroke-linejoin="round"/>
<path d="M13.8085 13.8085L17.357 17.3571M8.35704 5.1428V3.21423M8.35704 5.1428C7.2899 5.1428 6.42847 5.1428 6.42847 6.42852C6.42847 8.35709 10.2856 8.35709 10.2856 10.2857C10.2856 11.5714 9.42418 11.5714 8.35704 11.5714M8.35704 5.1428C9.42418 5.1428 10.2856 5.63138 10.2856 6.42852M6.42847 10.2857C6.42847 11.2499 7.2899 11.5714 8.35704 11.5714M8.35704 11.5714V13.4999" stroke="white" stroke-width="1.5" stroke-linecap="round" stroke-linejoin="round"/>
</svg>
