<svg width="17" height="16" viewBox="0 0 17 16" fill="none" xmlns="http://www.w3.org/2000/svg">
<path d="M12.5476 0.511963C15.007 0.511963 17 2.53577 17 5.36911C17 11.0358 10.9286 14.2739 8.90476 15.4882C7.30433 14.5281 3.1709 12.3011 1.513 8.60801L0 8.6072V6.98815H0.979524C0.865945 6.45597 0.808962 5.91327 0.809524 5.36911C0.809524 2.53577 2.83333 0.511963 5.2619 0.511963C6.76762 0.511963 8.09524 1.32149 8.90476 2.13101C9.71429 1.32149 11.0419 0.511963 12.5476 0.511963ZM12.5476 2.13101C11.6766 2.13101 10.7343 2.59244 10.0494 3.27568L8.90476 4.42034L7.7601 3.27568C7.07524 2.59244 6.13295 2.13101 5.2619 2.13101C3.69143 2.13101 2.42857 3.47158 2.42857 5.36911C2.42857 5.92363 2.50143 6.46358 2.64471 6.98815H4.39895L6.07143 4.20015L8.5 8.24777L9.2561 6.98815H12.9524V8.6072H10.1725L8.5 11.3952L6.07143 7.34758L5.31533 8.6072H3.32552C3.96505 9.71949 4.93243 10.767 6.18881 11.7668C6.7919 12.246 7.43548 12.6937 8.14867 13.143C8.39071 13.296 8.63033 13.4425 8.90476 13.606C9.17919 13.4425 9.41881 13.296 9.66086 13.1438C10.3386 12.721 10.9926 12.2613 11.6199 11.7668C14.0331 9.8482 15.381 7.75153 15.381 5.36911C15.381 3.45863 14.1367 2.13101 12.5476 2.13101Z" fill="white"/>
</svg>
