<svg width="17" height="16" viewBox="0 0 17 16" fill="none" xmlns="http://www.w3.org/2000/svg">
<path d="M1.54545 14.0992V3.82192C1.54541 3.6633 1.59418 3.5085 1.68514 3.37856C1.7761 3.24861 1.90485 3.1498 2.05391 3.09555L9.52695 0.378645C9.58533 0.357399 9.64797 0.350543 9.70956 0.358657C9.77115 0.366771 9.82987 0.389616 9.88075 0.425256C9.93163 0.460895 9.97317 0.508278 10.0018 0.563387C10.0305 0.618495 10.0455 0.679705 10.0455 0.741826V4.56915L14.926 6.19574C15.0801 6.24705 15.214 6.34559 15.3089 6.47736C15.4038 6.60914 15.4547 6.76745 15.4545 6.92983V14.0992H17V15.6446H0V14.0992H1.54545ZM3.09091 14.0992H8.5V2.39624L3.09091 4.3636V14.0992ZM13.9091 14.0992V7.48696L10.0455 6.19883V14.1L13.9091 14.0992Z" fill="white"/>
</svg>
